<?xml version="1.0" encoding="UTF-8" standalone="no"?>
<svg
   xmlns:dc="http://purl.org/dc/elements/1.1/"
   xmlns:cc="http://creativecommons.org/ns#"
   xmlns:rdf="http://www.w3.org/1999/02/22-rdf-syntax-ns#"
   xmlns:svg="http://www.w3.org/2000/svg"
   xmlns="http://www.w3.org/2000/svg"
   xmlns:sodipodi="http://sodipodi.sourceforge.net/DTD/sodipodi-0.dtd"
   xmlns:inkscape="http://www.inkscape.org/namespaces/inkscape"
   version="1.1"
   viewBox="0 0 32 40"
   x="0px"
   y="0px"
   id="svg14"
   sodipodi:docname="plus.svg"
   inkscape:version="0.92.5 (2060ec1f9f, 2020-04-08)">
  <metadata
     id="metadata20">
    <rdf:RDF>
      <cc:Work
         rdf:about="">
        <dc:format>image/svg+xml</dc:format>
        <dc:type
           rdf:resource="http://purl.org/dc/dcmitype/StillImage" />
      </cc:Work>
    </rdf:RDF>
  </metadata>
  <defs
     id="defs18" />
  <sodipodi:namedview
     pagecolor="#ffffff"
     bordercolor="#666666"
     borderopacity="1"
     objecttolerance="10"
     gridtolerance="10"
     guidetolerance="10"
     inkscape:pageopacity="0"
     inkscape:pageshadow="2"
     inkscape:window-width="1366"
     inkscape:window-height="702"
     id="namedview16"
     showgrid="false"
     inkscape:zoom="5.9"
     inkscape:cx="23.711864"
     inkscape:cy="20"
     inkscape:window-x="0"
     inkscape:window-y="40"
     inkscape:window-maximized="1"
     inkscape:current-layer="svg14" />
  <title
     id="title2">plus-box</title>
  <path
     d="M8 14.857c-0.005 0-0.010 0-0.016 0-0.631 0-1.143 0.511-1.143 1.143s0.511 1.143 1.143 1.143c0.006 0 0.011 0 0.017 0h15.998c0.005 0 0.010 0 0.016 0 0.631 0 1.143-0.511 1.143-1.143s-0.511-1.143-1.143-1.143c-0.006 0-0.011 0-0.017 0z"
     id="path4"
     style="fill:#fcaf3b;fill-opacity:1" />
  <path
     d="M17.143 8c0-0.005 0-0.010 0-0.016 0-0.631-0.511-1.143-1.143-1.143s-1.143 0.511-1.143 1.143c0 0.006 0 0.011 0 0.017v-0.001 15.999c0 0.005 0 0.010 0 0.016 0 0.631 0.511 1.143 1.143 1.143s1.143-0.511 1.143-1.143c0-0.006 0-0.011 0-0.017v0.001z"
     id="path6"
     style="fill:#fcaf3b;fill-opacity:1" />
  <path
     d="M1.143 0c-0.631 0-1.143 0.511-1.143 1.143v0 29.713c0 0.631 0.512 1.143 1.143 1.143h29.713c0.631 0 1.143-0.511 1.143-1.143v0-29.713c0-0.631-0.511-1.143-1.143-1.143zM2.286 2.286h27.428v27.428h-27.428z"
     id="path8"
     style="fill:#fcaf3b;fill-opacity:1;opacity:1" />
</svg>
